<svg width="29" height="29" viewBox="0 0 29 29" fill="none" xmlns="http://www.w3.org/2000/svg">
<path d="M14.0654 28.0711C12.1185 28.0711 10.2908 27.7036 8.58226 26.9686C6.87375 26.2335 5.38378 25.2302 4.11233 23.9588C2.84089 22.6874 1.83764 21.1974 1.10258 19.4889C0.367527 17.7804 0 15.9527 0 14.0058C0 12.0986 0.367527 10.2908 1.10258 8.58226C1.83764 6.87375 2.84089 5.38378 4.11233 4.11233C5.38378 2.84089 6.87375 1.83764 8.58226 1.10258C10.2908 0.367527 12.1185 0 14.0654 0C15.9725 0 17.7804 0.367527 19.4889 1.10258C21.1974 1.83764 22.6874 2.84089 23.9588 4.11233C25.2302 5.38378 26.2335 6.87375 26.9686 8.58226C27.7036 10.2908 28.0711 12.0986 28.0711 14.0058C28.0711 15.9527 27.7036 17.7804 26.9686 19.4889C26.2335 21.1974 25.2302 22.6874 23.9588 23.9588C22.6874 25.2302 21.1974 26.2335 19.4889 26.9686C17.7804 27.7036 15.9725 28.0711 14.0654 28.0711ZM7.27108 23.5416C9.21798 24.972 11.4827 25.6872 14.0654 25.6872C15.3368 25.6872 16.5487 25.4885 17.7009 25.0912C17.4625 22.1907 16.8864 19.3697 15.9725 16.6281C14.1846 17.2241 12.5456 18.1082 11.0556 19.2803C9.56564 20.4524 8.30413 21.8728 7.27108 23.5416ZM18.2969 16.0321C18.6942 17.3036 19.032 18.6148 19.3101 19.9657C19.5882 21.3166 19.8067 22.6874 19.9657 24.078C21.396 23.2436 22.598 22.1609 23.5714 20.8299C24.5449 19.4988 25.1905 17.9989 25.5084 16.3301C24.7932 16.1315 24.0879 15.9825 23.3926 15.8831C22.6973 15.7838 22.0119 15.7341 21.3364 15.7341C20.4226 15.7341 19.4094 15.8335 18.2969 16.0321ZM2.38396 14.5422C2.50316 17.4029 3.53621 19.8663 5.48311 21.9324C6.63536 20.1445 8.04587 18.6148 9.71464 17.3433C11.3834 16.0719 13.2111 15.0984 15.1977 14.423C15.0388 13.9064 14.8203 13.3502 14.5422 12.7542C12.8337 13.3899 11.0954 13.8568 9.32725 14.1548C7.55914 14.4528 5.7811 14.6018 3.99313 14.6018H3.24815L2.38396 14.5422ZM21.3364 13.4098C22.7668 13.4098 24.2369 13.5886 25.7468 13.9462C25.7468 11.5622 25.0515 9.39678 23.6608 7.44988C21.5152 9.31731 19.1909 10.8073 16.6877 11.9198C16.8467 12.2377 16.9857 12.5555 17.1049 12.8734C17.2241 13.1912 17.3632 13.5091 17.5221 13.827C18.1578 13.668 18.7936 13.5588 19.4293 13.4992C20.065 13.4396 20.7007 13.4098 21.3364 13.4098ZM2.50316 12.2178C2.74155 12.2575 2.97995 12.2774 3.21835 12.2774H3.99313C7.25121 12.2774 10.41 11.741 13.4694 10.6682C12.1185 8.16506 10.5292 5.82084 8.70146 3.63554C7.03268 4.50966 5.65197 5.70164 4.55932 7.21148C3.46668 8.72132 2.78129 10.3901 2.50316 12.2178ZM11.0258 2.74155C11.9397 3.85407 12.784 4.99638 13.5588 6.1685C14.3336 7.34061 15.0388 8.54253 15.6745 9.77424C16.8268 9.25771 17.9393 8.65179 19.0121 7.95647C20.0849 7.26115 21.1378 6.49629 22.1708 5.66191C21.0583 4.58912 19.8067 3.76467 18.4161 3.18855C17.0255 2.61242 15.5752 2.32436 14.0654 2.32436C13.5488 2.32436 13.0323 2.36409 12.5158 2.44356C11.9993 2.52303 11.5026 2.62236 11.0258 2.74155Z" fill="#CECECE"/>
</svg>
