<svg width="29" height="28" viewBox="0 0 29 28" fill="none" xmlns="http://www.w3.org/2000/svg">
<path fill-rule="evenodd" clip-rule="evenodd" d="M12.1628 0.0433167C8.81509 0.683497 6.2251 2.06362 3.99166 4.39788C1.93503 6.5471 0.723459 8.94462 0.205221 11.8908C-0.678155 16.9119 1.33861 22.2784 5.32471 25.5126C5.91976 25.9954 7.20315 26.7796 8.17691 27.2553C9.71221 28.0054 10.0029 28.095 10.3677 27.9301C10.7681 27.749 10.7882 27.6671 10.7882 26.2176V24.6954L9.80018 24.7834C7.85439 24.9568 6.66722 24.3113 5.80171 22.6099C5.50255 22.0216 4.98758 21.3705 4.5221 20.9921C3.65247 20.2849 3.58717 20.1307 4.0896 19.9725C4.76145 19.7608 5.59878 20.2228 6.6057 21.3613C7.1449 21.9708 7.80009 22.5792 8.06178 22.7136C8.96922 23.1793 10.6978 22.9392 10.8911 22.3207C10.9429 22.1551 11.0944 21.7699 11.2281 21.4645C11.3616 21.159 11.4752 20.8555 11.4805 20.79C11.4857 20.7245 11.008 20.5733 10.4189 20.4541C6.99953 19.7619 5.27076 17.5478 5.24962 13.8341C5.24017 12.1694 5.50754 11.1839 6.22029 10.2565C6.59281 9.77188 6.6136 9.64978 6.45707 8.86396C6.28593 8.00516 6.47666 6.47241 6.82324 5.92244C7.03562 5.58513 8.32537 5.92551 9.73472 6.69035C10.8102 7.27425 10.8454 7.28091 11.7967 7.08155C13.0064 6.8278 15.9252 6.83189 17.0455 7.08906C17.8629 7.27647 17.9356 7.26044 19.2793 6.59775C20.0433 6.22104 20.9571 5.86429 21.31 5.80494C21.8918 5.70689 21.9678 5.73929 22.1259 6.15215C22.4226 6.92654 22.5197 8.35151 22.3236 9.05564C22.1611 9.64023 22.1798 9.77307 22.4681 10.0776C22.9733 10.6114 23.4813 11.8802 23.6038 12.9145C23.7517 14.1636 23.4192 16.1931 22.8886 17.2794C22.1039 18.8862 20.2763 20.1488 18.2487 20.4851C17.139 20.6691 17.1485 20.6541 17.5928 21.525C17.9764 22.2771 18.005 22.5216 18.005 25.0366C18.005 27.7391 18.0052 27.7399 18.4255 27.9301C18.7903 28.095 19.081 28.0054 20.6163 27.2553C21.5901 26.7796 22.8735 25.9954 23.4685 25.5126C29.1712 20.8855 30.4718 12.4987 26.4335 6.39362C25.2112 4.54573 23.0665 2.59602 21.1717 1.61017C18.9214 0.439124 17.5086 0.0845857 14.8262 0.0172252C13.5976 -0.0136413 12.3991 -0.00187454 12.1628 0.0433167Z" fill="#CECECE"/>
</svg>
