<svg width="28" height="28" viewBox="0 0 28 28" fill="none" xmlns="http://www.w3.org/2000/svg">
<path fill-rule="evenodd" clip-rule="evenodd" d="M2.39974 0.109009C1.27114 0.382382 0.379146 1.28812 0.108882 2.43519C-0.0362939 3.05118 -0.0362939 24.9563 0.108882 25.5723C0.382798 26.7349 1.27342 27.6287 2.42967 27.9015C2.79378 27.9873 4.28109 28 13.9998 28C23.7186 28 25.2059 27.9873 25.57 27.9015C26.7263 27.6287 27.6169 26.7349 27.8908 25.5723C28.0377 24.9487 28.0358 3.0504 27.8887 2.42619C27.6162 1.2692 26.7229 0.378009 25.561 0.103918C24.96 -0.0378912 2.98624 -0.0329967 2.39974 0.109009ZM7.26364 4.05024C7.89098 4.28505 8.48596 4.91363 8.7122 5.58045C8.84995 5.9865 8.85438 6.6887 8.72212 7.14395C8.35879 8.39459 6.95262 9.14958 5.68008 8.77721C3.85573 8.24338 3.27366 5.96203 4.61846 4.61637C5.32875 3.90563 6.31413 3.69471 7.26364 4.05024ZM20.6872 10.3862C21.5537 10.6253 22.0817 10.9256 22.6716 11.515C23.2656 12.1085 23.563 12.6131 23.8398 13.4971C24.1137 14.3718 24.1485 15.1348 24.1278 19.8119L24.1087 24.119H22.0217H19.9347L19.902 20.0076C19.8719 16.226 19.8596 15.8701 19.7493 15.57C19.3719 14.5437 18.8184 14.11 17.8096 14.0501C16.6617 13.9821 15.7534 14.5538 15.3969 15.5689C15.1741 16.2031 15.1453 16.766 15.1432 20.5143L15.1412 24.1535L13.1357 24.1362L11.1302 24.119L11.1136 17.3809L11.097 10.6429H13.1191H15.1412V11.4963V12.3496L15.3159 12.1325C16.1705 11.0705 17.2053 10.4478 18.437 10.2542C19.0081 10.1645 20.1199 10.2297 20.6872 10.3862ZM8.4889 17.3982V24.1535L6.38561 24.1362L4.28232 24.119L4.26569 17.3809L4.24913 10.6429H6.36898H8.4889V17.3982Z" fill="#CECECE"/>
</svg>
