<?xml version="1.0" encoding="UTF-8" standalone="no"?>
<svg
   inkscape:version="1.2.1 (9c6d41e410, 2022-07-14)"
   sodipodi:docname="editinprogress.svg"
   viewBox="0 0 200 200"
   height="200"
   width="200"
   id="svg2"
   version="1.1"
   xml:space="preserve"
   inkscape:export-filename="for-web.svg"
   inkscape:export-xdpi="96"
   inkscape:export-ydpi="96"
   xmlns:inkscape="http://www.inkscape.org/namespaces/inkscape"
   xmlns:sodipodi="http://sodipodi.sourceforge.net/DTD/sodipodi-0.dtd"
   xmlns:xlink="http://www.w3.org/1999/xlink"
   xmlns="http://www.w3.org/2000/svg"
   xmlns:svg="http://www.w3.org/2000/svg"
   xmlns:rdf="http://www.w3.org/1999/02/22-rdf-syntax-ns#"
   xmlns:cc="http://creativecommons.org/ns#"
   xmlns:dc="http://purl.org/dc/elements/1.1/"><metadata
     id="metadata8"><rdf:RDF><cc:Work
         rdf:about=""><dc:format>image/svg+xml</dc:format><dc:type
           rdf:resource="http://purl.org/dc/dcmitype/StillImage" /></cc:Work></rdf:RDF></metadata><defs
     id="defs6"><linearGradient
       inkscape:collect="always"
       id="linearGradient2029"><stop
         style="stop-color:#fe6a00;stop-opacity:1"
         offset="0"
         id="stop2025" /><stop
         style="stop-color:#ffb200;stop-opacity:1"
         offset="1"
         id="stop2027" /></linearGradient><linearGradient
       id="linearGradient5497"
       inkscape:collect="always"><stop
         id="stop5493"
         offset="0"
         style="stop-color:#000000;stop-opacity:1" /><stop
         id="stop5495"
         offset="1"
         style="stop-color:#ffffff;stop-opacity:1" /></linearGradient><linearGradient
       inkscape:collect="always"
       id="linearGradient63443"><stop
         style="stop-color:#000000;stop-opacity:1"
         offset="0"
         id="stop63439" /><stop
         style="stop-color:#ffffff;stop-opacity:0;"
         offset="1"
         id="stop63441" /></linearGradient><linearGradient
       inkscape:collect="always"
       id="linearGradient41589"><stop
         style="stop-color:#000000;stop-opacity:0.44581547"
         offset="0"
         id="stop41585" /><stop
         style="stop-color:#000000;stop-opacity:0"
         offset="1"
         id="stop41587" /></linearGradient><linearGradient
       inkscape:collect="always"
       id="linearGradient40287"><stop
         style="stop-color:#3e3e4a;stop-opacity:1;"
         offset="0"
         id="stop40283" /><stop
         style="stop-color:#000000;stop-opacity:0"
         offset="1"
         id="stop40285" /></linearGradient><linearGradient
       inkscape:collect="always"
       id="linearGradient39865"><stop
         style="stop-color:#000000;stop-opacity:0.3261072"
         offset="0"
         id="stop39861" /><stop
         style="stop-color:#d9e4fa;stop-opacity:0;"
         offset="1"
         id="stop39863" /></linearGradient><linearGradient
       inkscape:collect="always"
       id="linearGradient38256"><stop
         style="stop-color:#000000;stop-opacity:0.38352689"
         offset="0"
         id="stop38252" /><stop
         style="stop-color:#000000;stop-opacity:0"
         offset="1"
         id="stop38254" /></linearGradient><linearGradient
       inkscape:collect="always"
       id="linearGradient37390"><stop
         style="stop-color:#000000;stop-opacity:0.20292553"
         offset="0"
         id="stop37386" /><stop
         style="stop-color:#3d3846;stop-opacity:0;"
         offset="1"
         id="stop37388" /></linearGradient><linearGradient
       id="linearGradient2291"
       inkscape:collect="always"><stop
         id="stop2287"
         offset="0"
         style="stop-color:#000000;stop-opacity:1" /><stop
         id="stop2289"
         offset="1"
         style="stop-color:#000000;stop-opacity:0" /></linearGradient><linearGradient
       id="linearGradient2085"
       inkscape:collect="always"><stop
         id="stop2081"
         offset="0"
         style="stop-color:#000000;stop-opacity:1;" /><stop
         id="stop2083"
         offset="1"
         style="stop-color:#000000;stop-opacity:0;" /></linearGradient><linearGradient
       id="linearGradient2075"
       inkscape:collect="always"><stop
         id="stop2071"
         offset="0"
         style="stop-color:#000000;stop-opacity:1;" /><stop
         id="stop2073"
         offset="1"
         style="stop-color:#c48b78;stop-opacity:1" /></linearGradient><linearGradient
       inkscape:collect="always"
       xlink:href="#linearGradient2029"
       id="linearGradient7056"
       gradientUnits="userSpaceOnUse"
       gradientTransform="matrix(0.14480414,0,0,0.14480414,-28881.551,-7157.871)"
       x1="-32349.594"
       y1="-8305.834"
       x2="-32185.832"
       y2="-9705.3936" /><linearGradient
       inkscape:collect="always"
       xlink:href="#linearGradient2291"
       id="linearGradient7058"
       gradientUnits="userSpaceOnUse"
       gradientTransform="translate(-10130.879,-5268.6045)"
       x1="2731.8613"
       y1="811.31439"
       x2="2694.3044"
       y2="928.88293" /><linearGradient
       inkscape:collect="always"
       xlink:href="#linearGradient2075"
       id="linearGradient7060"
       gradientUnits="userSpaceOnUse"
       gradientTransform="translate(-18794.763,-4115.1782)"
       x1="11269.469"
       y1="-385.88803"
       x2="11239.142"
       y2="-434.1785" /><linearGradient
       inkscape:collect="always"
       xlink:href="#linearGradient2085"
       id="linearGradient7062"
       gradientUnits="userSpaceOnUse"
       gradientTransform="translate(-18794.763,-4115.1782)"
       x1="11395.985"
       y1="-509.62137"
       x2="11347.715"
       y2="-499.84851" /><linearGradient
       inkscape:collect="always"
       xlink:href="#linearGradient5497"
       id="linearGradient7064"
       gradientUnits="userSpaceOnUse"
       x1="-28209.848"
       y1="-10294.273"
       x2="-28218.535"
       y2="-10096.321" /><linearGradient
       inkscape:collect="always"
       xlink:href="#linearGradient40287"
       id="linearGradient7066"
       gradientUnits="userSpaceOnUse"
       gradientTransform="translate(-710.98706,376.52003)"
       x1="-27469.568"
       y1="-10475.914"
       x2="-27514.016"
       y2="-10499.842" /><linearGradient
       inkscape:collect="always"
       xlink:href="#linearGradient37390"
       id="linearGradient7068"
       gradientUnits="userSpaceOnUse"
       gradientTransform="translate(-710.98706,376.52003)"
       x1="-27673.311"
       y1="-10324.914"
       x2="-27686.309"
       y2="-10326.819" /><radialGradient
       inkscape:collect="always"
       xlink:href="#linearGradient38256"
       id="radialGradient7070"
       gradientUnits="userSpaceOnUse"
       gradientTransform="matrix(1.0581859,-0.00966232,0.01953077,2.138948,1073.0208,11910.944)"
       cx="-27186.652"
       cy="-10331.483"
       fx="-27186.652"
       fy="-10331.483"
       r="94.154182" /><linearGradient
       inkscape:collect="always"
       xlink:href="#linearGradient39865"
       id="linearGradient7072"
       gradientUnits="userSpaceOnUse"
       gradientTransform="translate(-710.98706,376.52003)"
       x1="-27528.83"
       y1="-10568.079"
       x2="-27545.008"
       y2="-10566.597" /><linearGradient
       inkscape:collect="always"
       xlink:href="#linearGradient41589"
       id="linearGradient7074"
       gradientUnits="userSpaceOnUse"
       gradientTransform="translate(-710.98706,376.52003)"
       x1="-27364.498"
       y1="-10389.685"
       x2="-27429.846"
       y2="-10430.784" /><linearGradient
       inkscape:collect="always"
       xlink:href="#linearGradient63443"
       id="linearGradient7076"
       gradientUnits="userSpaceOnUse"
       gradientTransform="translate(-710.98706,376.52003)"
       x1="-27505.031"
       y1="-10613.994"
       x2="-27452.639"
       y2="-10570.115" /></defs><sodipodi:namedview
     inkscape:current-layer="layer1"
     inkscape:window-maximized="1"
     inkscape:window-y="0"
     inkscape:window-x="0"
     inkscape:cy="-4048.9797"
     inkscape:cx="-43975.183"
     inkscape:zoom="0.033712197"
     inkscape:snap-smooth-nodes="true"
     showgrid="false"
     id="namedview4"
     inkscape:window-height="1043"
     inkscape:window-width="1920"
     inkscape:pageshadow="2"
     inkscape:pageopacity="0"
     guidetolerance="10"
     gridtolerance="10"
     objecttolerance="10"
     borderopacity="1"
     bordercolor="#666666"
     pagecolor="#ffffff"
     inkscape:pagecheckerboard="0"
     inkscape:snap-global="false"
     inkscape:showpageshadow="0"
     inkscape:deskcolor="#d1d1d1" /><g
     transform="translate(33854.119,8664.0632)"
     style="display:inline;opacity:1"
     inkscape:label="Working"
     id="layer1"
     inkscape:groupmode="layer"><g
       id="g7054"
       transform="translate(-217.25202,2.0855267)"
       inkscape:export-filename="./for-web.svg"
       inkscape:export-xdpi="96"
       inkscape:export-ydpi="96"><rect
         style="display:inline;fill:url(#linearGradient7056);fill-opacity:1;stroke:none;stroke-width:0.999997;stroke-linecap:round;stroke-miterlimit:4;stroke-dasharray:7.99998, 7.99998;stroke-dashoffset:0;stroke-opacity:1;paint-order:stroke markers fill"
         id="rect6982"
         width="200"
         height="199.99994"
         x="-33636.867"
         y="-8666.1484"
         inkscape:export-filename="for-web.svg"
         inkscape:export-xdpi="95.969856"
         inkscape:export-ydpi="95.969856" /><g
         transform="matrix(0.14480414,0,0,0.14480414,-32466.824,-7918.2117)"
         id="g7008"
         style="display:inline;stroke-width:6.90587"
         inkscape:export-filename="/mnt/Files/Other/rect1435.png"
         inkscape:export-xdpi="95.969856"
         inkscape:export-ydpi="95.969856"><path
           sodipodi:nodetypes="cscccscccsccsscsccccscccccsssssssssssssssssssccccssssssccsssssscc"
           id="path6984"
           style="opacity:1;fill:#c48b78;fill-opacity:1;stroke:none;stroke-width:6.90587px;stroke-linecap:butt;stroke-linejoin:miter;stroke-opacity:1"
           d="m -7619.4437,-4725.4955 c -0.97,2.496 -2.028,4.9647 -3.135,7.1075 -4.476,8.6654 -9.759,16.7812 -9.759,16.7812 0,0 -8.521,9.9896 -6.373,32.4512 l 2.519,7.0215 c 0,0 -29.568,26.0044 -40.295,39.664 -10.726,13.6595 2.074,24.3106 2.074,24.3106 l 6.637,7.916 c 0,0 5.844,14.2346 12.416,14.2676 0,0 -11.988,18.264 -10.574,29.9668 1.414,11.7028 2.769,17.83 2.769,17.83 l 2.481,9.3692 c 0,0 1.26,13.0041 9.625,28.1621 8.365,15.158 8.122,10.8901 7.146,17.5801 -0.975,6.69 -2.921,10.8789 -2.921,10.8789 0,0 -8.402,28.9283 10.812,41.75 19.214,12.8218 86.51,6.3847 86.51,6.3847 l 100.416,-37.1035 22.728,-3.414 42.086,-84.7442 c 0,0 -0.4,-4.7679 0.526,-6.289 0.926,-1.5212 4.106,-4.3366 4.106,-4.3366 l 5.21,-10.8295 14.996,-54.8437 -1.861,-9.2129 -10.723,-4.4766 c 0,0 -1.767,-0.3148 -4.48,-0.998 -2.714,-0.6832 -6.373,-1.7357 -10.155,-3.2149 -1.89,-0.7395 -3.812,-1.5851 -5.662,-2.5449 -1.849,-0.9597 -3.627,-2.0326 -5.23,-3.2265 -1.603,-1.194 -3.029,-2.5089 -4.18,-3.9512 -0.575,-0.7211 -1.082,-1.4739 -1.506,-2.2598 -0.423,-0.7858 -0.763,-1.6047 -1.009,-2.457 -0.985,-3.4094 -1.592,-6.6599 -1.942,-9.7266 -0.35,-3.0667 -0.445,-5.9494 -0.402,-8.6289 0.09,-5.3589 0.719,-9.9003 0.933,-13.4433 0.05,-0.8858 0.09,-2.2036 0.04,-3.8809 -0.04,-1.6773 -0.163,-3.7132 -0.422,-6.0312 -0.258,-2.3181 -0.654,-4.9185 -1.244,-7.7266 -0.589,-2.8081 -1.373,-5.8233 -2.412,-8.9707 -1.038,-3.1474 -2.331,-6.4277 -3.935,-9.7637 -1.605,-3.3359 -3.523,-6.7278 -5.811,-10.1015 -1.144,-1.6869 -2.38,-3.3691 -3.717,-5.0372 -1.336,-1.668 -2.774,-3.3227 -4.318,-4.9531 -1.544,-1.6304 -3.195,-3.2366 -4.961,-4.8105 -1.766,-1.5739 -3.647,-3.1147 -5.65,-4.6133 -32.047,-23.9769 -38.682,-28.9609 -38.682,-28.9609 l -18.918,-19.1739 -14.33,-11.4336 c 0,0 -0.833,-1.0858 -2.408,-2.6406 -0.788,-0.7774 -1.763,-1.6713 -2.91,-2.6055 -1.148,-0.9342 -2.47,-1.9092 -3.955,-2.8457 -1.486,-0.9364 -3.134,-1.835 -4.934,-2.6191 -1.8,-0.7841 -3.752,-1.4525 -5.844,-1.9297 -2.092,-0.4771 -4.323,-0.7617 -6.685,-0.7773 -2.362,-0.016 -4.854,0.2374 -7.463,0.8379 -0.327,-0.4439 -20.894,8.1278 -34.746,25.5976 -2.314,2.4586 -4.643,4.8064 -6.91,7.4981 -3.708,4.4011 -7.318,9.084 -10.713,13.9531 -3.396,4.8691 -6.578,9.9242 -9.426,15.0683 -1.424,2.5721 -2.764,5.1669 -4.008,7.7715 -1.244,2.6047 -2.39,5.2189 -3.424,7.8321 -1.033,2.6131 -1.954,5.2247 -2.748,7.8222 -0.794,2.5975 -1.461,5.1806 -1.986,7.7383 z" /><path
           sodipodi:nodetypes="cccssscssscscscccscccsccccssscccsc"
           style="opacity:1;fill:#040203;fill-opacity:1;stroke:#000000;stroke-width:6.90587px;stroke-linecap:butt;stroke-linejoin:miter;stroke-opacity:1"
           d="m -7618.1777,-4724.5102 -6.936,-5.3961 c 0,0 -78.48,-61.7421 16.814,-138.6688 0,0 3.666,-0.4294 11.468,-6.7315 7.802,-6.3021 21.471,-18.9113 43.12,-18.6631 21.649,0.2483 31.742,-4.8927 39.254,-6.6441 7.512,-1.7513 20.533,-5.143 66.973,12.147 0,0 -0.492,3.3237 22.14,8.1672 22.632,4.8436 44.071,6.9856 55.186,14.0778 11.116,7.0921 28.947,-3.3481 47.212,3.3108 18.265,6.6589 71.424,40.1668 71.424,40.1668 0,0 27.694,23.0945 38.238,44.1686 10.543,21.074 13.084,41.3572 13.084,41.3572 0,0 3.167,25.2569 2.19,42.4601 -0.977,17.2031 -6.323,59.4454 -6.323,59.4454 l -28.219,70.0256 -39.004,66.08 c 0,0 -25.698,34.5488 -27.863,51.7037 -2.165,17.1549 -7.261,30.7405 -7.261,30.7405 0,0 -1.897,7.0464 3.775,26.1245 0,0 0.395,6.5985 -1.568,12.2761 0,0 -24.421,-63.595 -29.174,-82.4014 -4.754,-18.8064 -7.946,-50.2316 -7.946,-50.2316 l 0.197,-15.3217 -17.8098,-109.2314 c -14.099,2.1667 -42.6332,42.2213 -42.6982,47.7058 0,0 1.592,-46.4767 -2.346,-60.1142 -3.938,-13.6376 -1.838,-24.7115 -1.41,-31.7976 0.429,-7.0861 -0.381,-41.913 -32.427,-65.89 -32.047,-23.9769 -38.683,-28.9594 -38.683,-28.9594 l -18.918,-19.1747 -14.329,-11.4328 c 0,0 -13.327,-17.3848 -34.199,-12.5811 -20.871,4.8037 -65.557,52.3585 -73.961,93.2824 z"
           id="path6986" /><path
           style="opacity:1;fill:#c48b78;fill-opacity:1;stroke:none;stroke-width:6.90587px;stroke-linecap:butt;stroke-linejoin:miter;stroke-opacity:1"
           d="m -7368.5087,-4622.3468 c 5.695,-4.2946 15.041,-8.0821 18.96,-10.8824 l 11.846,-9.2502 c 0,0 33.696,-31.7014 53.131,-13.2763 19.434,18.4251 18.343,36.3664 18.343,36.3664 0,0 -5.45,41.3349 -16.451,56.6203 -11.001,15.2854 -46.33,31.09 -46.33,31.09 0,0 -12.725,6.4715 -24.888,6.121 -12.163,-0.3505 -22.873,-5.7462 -26.629,-9.752 -3.755,-4.0058 -3.679,-10.0194 -3.679,-10.0194 l 9.766,-15.4415 14.242,-53.9401 z"
           id="path6988"
           sodipodi:nodetypes="cccscscsscccc" /><path
           style="opacity:1;fill:#c18a76;fill-opacity:1;stroke:none;stroke-width:6.90587px;stroke-linecap:butt;stroke-linejoin:miter;stroke-opacity:1"
           d="m -7548.4247,-4401.8275 c 0,0 2.043,16.4262 7.581,41.3098 5.538,24.8836 9.142,26.4647 9.142,34.0606 v 26.7599 c 0,5.0572 1.155,37.687 1.155,44.9033 0,7.2162 2.295,31.621 2.295,31.621 l 0.05,7.473 c 25.0881,21.1481 54.402,1.5564 82.086,-2.3216 l 155.854,-41.8994 42.881,-62.727 c 0,0 -40.32,-22.9383 -57.095,-55.7146 -16.775,-32.7763 -34.06,-103.1055 -34.06,-103.1055 l -2.863,-44.8492 -38.251,-23.6242 z"
           id="path6990"
           sodipodi:nodetypes="csssscccccscccc" /><path
           id="path6992"
           d="m -7460.7177,-4824.2581 c 0,0 -17.841,10.0445 -45.058,3.6612 -27.216,-6.3834 -23.108,-16.8078 -55.248,-35.4979 -32.14,-18.6902 -40.748,10.7018 -40.748,10.7018 0,0 -3.313,9.6518 3.55,25.2077 0,0 14.451,-39.5652 46.416,-15.9889 31.964,23.5763 61.422,31.9941 91.088,11.9161 z"
           style="opacity:0.121878;fill:#ffffff;stroke:none;stroke-width:6.90587px;stroke-linecap:butt;stroke-linejoin:miter;stroke-opacity:1" /><path
           style="opacity:0.317123;fill:url(#linearGradient7058);fill-opacity:1;stroke:none;stroke-width:6.90587px;stroke-linecap:butt;stroke-linejoin:miter;stroke-opacity:1"
           d="m -7547.3431,-4389.744 c 0,0 35.3223,137.637 220.944,126.4522 4.165,-0.251 63.105,-65.1082 67.3905,-65.4465 0,0 -38.6848,-7.6987 -61.0175,-90.1431 -22.3328,-82.4444 -21.3706,-107.4358 -21.3706,-107.4358 0,0 -24.8758,5.4332 -31.5644,-9.0955 -4.3183,-12.6666 -6.3161,-31.9994 11.7411,-45.6138 3.6968,-2.7873 4.7047,-8.1569 3.009,-11.3587 -0.5381,-1.016 -0.4542,-6.3556 -0.1655,-7.4575 3.9102,-14.9227 8.6915,-28.5591 15.6073,-39.0437 -28.0641,28.0114 -45.0331,-18.4389 -58.5366,108.4063 l -37.6206,70.8964 z"
           id="path6994"
           sodipodi:nodetypes="cscsccssscccc" /><path
           style="opacity:1;fill:url(#linearGradient7060);fill-opacity:1;stroke:none;stroke-width:6.90587px;stroke-linecap:butt;stroke-linejoin:miter;stroke-opacity:1"
           d="m -7352.1057,-4631.3524 c 0.968,-0.9423 -24.17,11.8468 -30.769,23.834 -4.27,7.7587 -11.525,37.1813 -11.525,37.1813 0,0 -1.211,8.1857 -1.5,11.7335 -0.289,3.5478 -1.732,19.75 -1.732,19.75 l -2.029,16.0797 -3.209,9.7595 -2.067,14.1488 c 0,0 -5.527,9.9846 -5.078,13.8961 0.449,3.9116 4.613,16.1982 4.613,16.1982 l 6.384,11.4812 -8.538,18.6066 c 0,0 -12.111,11.3225 -14.273,12.324 -2.163,1.0015 -29.115,11.0829 -29.115,11.0829 l -45.181,16.2166 -38.232,11.7282 c 0,0 -46.514,1.007 -70.813,-2.386 -24.299,-3.393 -45.792,-28.4768 -45.792,-28.4768 0,0 -9.823,-11.1153 -6.149,-20.5656 3.675,-9.4504 10.277,-23.4286 10.277,-23.4286 l 2.607,0.6145 4.132,2.9108 7.648,2.3124 9.016,-2.0246 7.289,-4.8713 7.206,-2.0503 c 0,0 12.287,-0.4891 14.119,-0.4891 1.833,0 10.682,-6.8938 10.682,-6.8938 l 7.405,-8.8817 11.112,-4.663 13.392,4.5155 c 0,0 24.454,7.0157 25.895,6.279 1.441,-0.7366 6.339,-9.5305 6.339,-9.5305 l -5.302,-16.1053 -9.803,-16.7856 c 0,0 -8.998,-10.2841 -7.24,-17.2606 1.757,-6.9765 12.581,-11.1308 12.581,-11.1308 l 20.046,-9.162 34.748,-17.9501 34.495,-17.8232 20.844,-12.9839 6.159,-9.6984 c 1.382,-4.9593 4.059,-9.9185 3.607,-14.8778 1.378,-5.6627 2.529,-19.6389 2.44,-25.0177 l 0.243,-6.9176 c 0,0 0.606,-33.4888 3.596,-28.9164 4.468,6.8296 33.805,51.3628 51.472,58.2379 z"
           id="path6996"
           sodipodi:nodetypes="cscsccccscccscccscscccccccsccccscccscccccccccsc" /><path
           style="opacity:1;fill:#a87969;fill-opacity:1;stroke:none;stroke-width:6.90587px;stroke-linecap:butt;stroke-linejoin:miter;stroke-opacity:1"
           d="m -7639.4547,-4580.321 6.303,0.013 16.185,8.1021 16.941,3.9909 8.949,2.4128 c 0,0 9.715,4.0907 10.603,5.6784 0.888,1.5876 4.379,7.9408 4.379,7.9408 0,0 1.223,4.0167 5.793,7.1814 4.57,3.1646 7.432,5.7162 7.432,5.7162 0,0 -3.282,4.4409 -8.93,4.4409 -5.648,0 -9.923,-4.168 -11.549,-4.8044 -1.627,-0.6363 -8.571,-9.9556 -8.571,-9.9556 l -7.132,-5.8628 c 0,0 -13.112,-3.4431 -14.8,-3.4431 -1.688,0 -18.391,0.7577 -18.391,0.7577 l -12.28,-3.0324 -9.117,1.7947 -8.363,4.0881 -6.117,6.1328 c 0,0 0.149,-1.9598 0.346,-2.5221 0.197,-0.5622 1.805,-3.9044 1.805,-3.9044 l 2.355,-6.8013 c 0,0 1.673,-4.8148 2.208,-5.1781 0.535,-0.3632 2.98,-3.3067 2.98,-3.3067 l 5.697,-5.4249 5.795,-1.4199 z"
           id="path6998" /><path
           style="opacity:1;fill:#a87969;fill-opacity:1;stroke:none;stroke-width:6.90587px;stroke-linecap:butt;stroke-linejoin:miter;stroke-opacity:1"
           d="m -7590.8777,-4710.2316 c 0,0 -3.305,-0.5334 -4.611,-5.7578 -1.306,-5.2244 -1.08,-9.8903 -1.08,-9.8903 l 2.949,-4.8422 3.374,-2.5098 1.719,3.4064 3.045,-3.045 3.367,0.98 4.372,-3.1665 2.748,0.7108 8.877,-3.4912 7.157,-2.3968 0.623,1.444 19.58,-5.9513 c 0,0 3.169,-2.5411 8.058,-2.5411 4.889,0 17.947,5.1586 17.947,5.1586 0,0 5.291,1.6498 6.48,2.3791 1.188,0.7292 4.763,2.3231 6.448,5.4703 1.684,3.1472 5.328,7.4879 5.328,7.4879 l 6.5,6.5059 2.929,4.4314 c 0,0 -6.917,-2.015 -8.777,-2.4888 -1.859,-0.4737 -12.826,-2.6203 -14.173,-3.4675 -1.347,-0.8472 -10.147,-4.3224 -14.192,-4.3224 -4.045,0 -15.27,-1.4987 -16.484,-1.724 -1.214,-0.2252 -3.363,-2.0268 -10.917,-1.467 -7.555,0.5598 -11.227,1.3098 -11.227,1.3098 0,0 -7.474,7.8081 -10.183,9.5446 -2.708,1.7364 -10.477,5.6767 -10.477,5.6767 z"
           id="path7000" /><path
           style="opacity:1;fill:#a87969;fill-opacity:1;stroke:none;stroke-width:6.90587px;stroke-linecap:butt;stroke-linejoin:miter;stroke-opacity:1"
           d="m -7631.3387,-4697.4094 c 0,0 1.938,3.329 2.395,5.0437 0.457,1.7146 0.457,5.8244 0.457,8.1507 0,2.3263 -1.532,3.2466 -3.443,4.6578 -1.911,1.4112 -3.967,4.375 -3.967,4.375 l -3.858,-1.7832 -0.915,-5.4799 -1.665,-7.3881 -0.156,-4.1358 1.584,1.3638 -1.239,-4.7473 2.962,1.4013 1.644,-5.6281 z"
           id="path7002" /><path
           style="opacity:1;fill:#a87969;fill-opacity:1;stroke:none;stroke-width:6.90587px;stroke-linecap:butt;stroke-linejoin:miter;stroke-opacity:1"
           d="m -7650.9717,-4509.2686 2.983,8.915 9.915,10.0013 2.581,-9.4668 1.816,-10.5077 -3.575,-2.2524 c 0,0 -11.049,2.7862 -13.72,3.3106 z"
           id="path7004" /><path
           sodipodi:nodetypes="cscsccccsccccccccsc"
           id="path7006"
           d="m -7352.1057,-4631.3524 c 0.968,-0.9423 -24.17,11.8468 -30.769,23.834 -4.27,7.7587 -11.525,37.1813 -11.525,37.1813 0,0 -1.211,8.1857 -1.5,11.7335 -0.289,3.5478 -1.732,19.75 -1.732,19.75 l -2.029,16.0797 -3.209,9.7595 -2.067,14.1488 c 0,0 -5.527,9.9846 -5.078,13.8961 0.449,3.9116 4.613,16.1982 4.613,16.1982 l 6.384,11.4812 -8.538,18.6066 c -4.022,-55.1596 -101.164,-104.6942 -12.067,-165.4789 l 6.159,-9.6984 c 1.382,-4.9593 4.059,-9.9185 3.607,-14.8778 1.378,-5.6627 2.529,-19.6389 2.44,-25.0177 l 0.243,-6.9176 c 0,0 0.606,-33.4888 3.596,-28.9164 4.468,6.8296 33.805,51.3628 51.472,58.2379 z"
           style="opacity:1;fill:url(#linearGradient7062);fill-opacity:1;stroke:none;stroke-width:6.90587px;stroke-linecap:butt;stroke-linejoin:miter;stroke-opacity:1" /></g><g
         id="g7052"
         style="display:inline;stroke-width:6.90587"
         transform="matrix(0.20973866,0,0,0.20973866,-27632.692,-6397.171)"><path
           style="fill:url(#linearGradient7064);fill-opacity:1;stroke:none;stroke-width:6.90587px;stroke-linecap:butt;stroke-linejoin:miter;stroke-opacity:1"
           d="m -28279.392,-10159.378 -65.774,210.02 12.228,84.808 h 128.491 l 82.411,-336.174 -83.678,24.576 -21.252,16.052 -30.011,-13.93 z"
           id="path7010"
           sodipodi:nodetypes="ccccccccc" /><g
           id="g7020"
           inkscape:label="tie"
           style="fill:#be2208;fill-opacity:1;stroke-width:6.90587"><path
             style="fill:#be2208;fill-opacity:1;stroke:none;stroke-width:6.90587px;stroke-linecap:butt;stroke-linejoin:miter;stroke-opacity:1"
             d="m -28223.363,-10163.446 c 0,0 25.986,16.449 41.484,11.028 0.722,-0.253 1.258,-1.029 1.677,-2.122 1.585,-4.138 1.484,-12.809 3.455,-14.719 13.65,-13.228 -13.92,-13.815 -13.92,-13.815 0,0 -8.831,-3.877 -11.56,1.105 -2.73,4.981 -21.136,18.523 -21.136,18.523 z"
             id="path7012"
             sodipodi:nodetypes="cssscsc" /><g
             id="g7018"
             style="fill:#be2208;fill-opacity:1;stroke-width:6.90587"><path
               style="fill:#be2208;fill-opacity:1;stroke:none;stroke-width:6.90587px;stroke-linecap:butt;stroke-linejoin:miter;stroke-opacity:1"
               d="m -28254.637,-10104.269 c 0,0 -22.89,60.424 -28.219,78.794 -5.397,18.606 -14.98,55.017 -18.314,81.012 -3.334,25.995 -7.601,79.913 -7.601,79.913 h 40.078 l 29.643,-90.016 c 0,0 8.663,-38.693 9.261,-70.615 0.597,-31.922 0.888,-76.727 0.888,-76.727 z"
               id="path7014"
               sodipodi:nodetypes="csscccscc" /><path
               style="fill:#be2208;fill-opacity:1;stroke:none;stroke-width:6.90587px;stroke-linecap:butt;stroke-linejoin:miter;stroke-opacity:1"
               d="m -28236.518,-10167.795 c 0,0 0.729,8.301 25.091,1.187 26.032,-7.602 30.431,13.55 30.431,13.55 0,0 -38.942,37.985 -43.601,50.494 -4.659,12.509 -29.911,3.669 -31.344,-3.302 -1.432,-6.97 8.29,-56.151 1.444,-67.077 -6.847,-10.927 17.979,5.148 17.979,5.148 z"
               id="path7016"
               sodipodi:nodetypes="cscsssc" /></g></g><g
           id="g7026"
           style="fill:#e01b24;fill-opacity:1;stroke:none;stroke-width:6.90587"
           transform="translate(-710.98706,376.52003)"><path
             style="fill:#323133;fill-opacity:1;stroke:none;stroke-width:6.90587px;stroke-linecap:butt;stroke-linejoin:miter;stroke-opacity:1"
             d="m -27553.857,-10585.972 c 0,0 -81.255,53.905 -97.129,59.959 -15.873,6.053 -31.525,41.543 -34.519,54.601 -2.993,13.058 -17.754,230.342 -17.754,230.342 h 105.475 c 0,0 2.886,-49.71 6.008,-87.564 3.123,-37.855 8.697,-89.879 15.337,-134.517 6.125,-41.174 22.582,-122.821 22.582,-122.821 z"
             id="path7022"
             sodipodi:nodetypes="cssccsac" /><path
             style="fill:#323133;fill-opacity:1;stroke:none;stroke-width:6.90587px;stroke-linecap:butt;stroke-linejoin:miter;stroke-opacity:1"
             d="m -27335.962,-10612.98 c 0,0 135.967,72.307 154.393,79.913 18.426,7.606 34.222,12.53 42.82,24.608 8.597,12.078 29.68,27.047 34.322,93.465 4.009,57.369 6.243,94.73 1.88,173.924 h -424.551 z"
             id="path7024"
             sodipodi:nodetypes="csssccc" /></g><path
           style="fill:url(#linearGradient7066);fill-opacity:1;stroke:none;stroke-width:6.90587px;stroke-linecap:butt;stroke-linejoin:miter;stroke-opacity:1"
           d="m -28245.974,-10171.089 c 0,0 12.418,20.157 34.547,4.481 35.687,-25.28 34.481,1.829 31.225,12.068 -0.269,0.846 -0.679,1.101 -0.794,1.482 -0.06,0.192 -0.08,0.07 -0.107,0.105 0,0 -38.835,37.88 -43.494,50.389 -4.659,12.509 -29.911,3.669 -31.344,-3.302 -1.432,-6.97 8.29,-56.151 1.444,-67.077 -6.847,-10.927 8.523,1.854 8.523,1.854 z"
           id="path7028"
           sodipodi:nodetypes="cssscsssc" /><path
           style="fill:#ffffff;fill-opacity:1;stroke:none;stroke-width:6.90587px;stroke-linecap:butt;stroke-linejoin:miter;stroke-opacity:1"
           d="m -28096.671,-10290.455 c 0,0 7.206,-0.791 15.445,26.757 2.706,37.123 -59.02,93.874 -84.481,120.305 0,0 -15.243,-24.415 -28.918,-31.575 -6.379,-3.339 -24.238,11.058 -28.881,10.942 2.717,-3.034 17.29,-17.381 21.566,-22.208 4.276,-4.826 105.766,-92.43 105.269,-104.221 z"
           id="path7030"
           sodipodi:nodetypes="cccscsc" /><path
           style="fill:#241f31;fill-opacity:1;stroke:none;stroke-width:6.90587px;stroke-linecap:butt;stroke-linejoin:miter;stroke-opacity:1"
           d="m -28324.018,-9866.802 c 0,0 3.991,-208.7 -1.301,-237.398 14.301,-10.833 15.516,-10.379 15.516,-10.379 l -17.942,-5.03 c 0,0 36.487,-65.87 54.323,-85.506 17.836,-19.636 13.521,0.27 13.521,0.27 0,0 -24.241,110.909 -29.646,155.912 -5.405,45.002 -19.177,182.238 -19.177,182.238 z"
           id="path7032" /><g
           id="g7038"
           inkscape:label="collar"
           style="fill:#262626;fill-opacity:1;stroke-width:6.90587"><path
             style="fill:#262626;fill-opacity:1;stroke:none;stroke-width:6.90587px;stroke-linecap:butt;stroke-linejoin:miter;stroke-opacity:1"
             d="m -28079.746,-10268.388 c 0,0 15.06,9.99 29.342,29.58 14.282,19.589 9.456,51.258 9.456,51.258 l -24.503,5.733 19.984,13.502 c 0,0 -61.741,88.203 -109.624,164.06 -47.883,75.858 -66.432,120.358 -71.054,134.153 -0.573,1.711 -1.274,4.312 -1.69,5.552 h -40.858 c 0,0 42.192,-150.794 82.241,-222.16 40.048,-71.365 104.345,-168.877 104.345,-168.877 0,0 4.513,-8.009 -1.8,-12.13 4.214,-0.992 4.161,-0.671 4.161,-0.671 z"
             id="path7034"
             sodipodi:nodetypes="cscccssccsccc" /><path
             style="fill:#262626;fill-opacity:1;stroke:none;stroke-width:6.90587px;stroke-linecap:butt;stroke-linejoin:miter;stroke-opacity:1"
             d="m -28324.018,-9866.802 c 0,0 3.991,-208.7 -1.301,-237.398 14.301,-10.833 15.516,-10.379 15.516,-10.379 l -17.942,-5.03 c 0,0 36.487,-65.87 54.323,-85.506 17.836,-19.636 13.521,0.27 13.521,0.27 0,0 -24.241,110.909 -29.646,155.912 -5.405,45.002 -19.177,182.238 -19.177,182.238 z"
             id="path7036" /></g><path
           style="fill:#ffffff;fill-opacity:1;stroke:none;stroke-width:6.90587px;stroke-linecap:butt;stroke-linejoin:miter;stroke-opacity:1"
           d="m -28254.748,-10250.678 c 0,0 -7.664,12.164 -9,31.137 -1.335,18.973 -21.503,76.423 -19.78,77.679 1.724,1.255 7.455,-0.565 12.51,-8.138 5.056,-7.573 13.007,-20.684 17.436,-21.37 4.428,-0.686 8.677,-1.334 13.608,1.78 1.827,1.154 3.377,3.666 5.546,4.788 0.861,0.445 2.823,0.698 2.823,0.698 0,0 -12.911,-29.244 -13.977,-36.061 -1.457,-9.318 -4.394,-27.678 -2.819,-38.318 1.574,-10.64 -6.347,-12.195 -6.347,-12.195 z"
           id="path7040"
           sodipodi:nodetypes="csssssacssc" /><path
           style="fill:url(#linearGradient7068);fill-opacity:1;stroke:none;stroke-width:6.90587px;stroke-linecap:butt;stroke-linejoin:miter;stroke-opacity:1"
           d="m -28378.155,-10060.72 c 0,0 -14.662,144.45 -12.55,196.17 -20.599,0 -23.541,0 -23.541,0 l 12.462,-166.267 2.817,-41.983 z"
           id="path7042"
           sodipodi:nodetypes="cccccc" /><path
           style="fill:url(#radialGradient7070);fill-opacity:1;stroke:none;stroke-width:6.90587px;stroke-linecap:butt;stroke-linejoin:miter;stroke-opacity:1"
           d="m -27858.89,-10140.173 c 0,0 -85.489,7.224 -101.914,95.273 -16.426,88.048 -2.175,180.35 -2.175,180.35 h -35.846 -47.744 c 0,0 -7.403,-178.843 23.105,-224.542 30.507,-45.698 58.096,-87.203 164.574,-51.081 z"
           id="path7044"
           sodipodi:nodetypes="cscccsc" /><path
           style="fill:url(#linearGradient7072);fill-opacity:1;stroke:none;stroke-width:6.90587px;stroke-linecap:butt;stroke-linejoin:miter;stroke-opacity:1"
           d="m -28254.748,-10250.678 c 0,0 -7.664,12.164 -9,31.137 -1.335,18.973 -21.503,76.423 -19.78,77.679 1.724,1.255 7.455,-0.565 12.51,-8.138 5.056,-7.573 13.007,-20.684 17.436,-21.37 4.428,-0.686 8.677,-1.334 13.608,1.78 1.815,1.146 3.377,3.666 5.546,4.788 0.865,0.447 2.837,0.701 2.837,0.701 0,0 -12.911,-29.159 -13.991,-36.064 -1.457,-9.318 -4.394,-27.678 -2.819,-38.318 1.574,-10.64 -6.347,-12.195 -6.347,-12.195 z"
           id="path7046"
           sodipodi:nodetypes="csssssacssc" /><path
           style="fill:url(#linearGradient7074);fill-opacity:1;stroke:none;stroke-width:6.90587px;stroke-linecap:butt;stroke-linejoin:miter;stroke-opacity:1"
           d="m -28079.746,-10268.388 c 0,0 15.06,9.99 29.342,29.58 14.282,19.589 9.456,51.258 9.456,51.258 l -24.503,5.733 19.984,13.502 c 0,0 -61.741,88.203 -109.624,164.06 -47.883,75.858 -66.432,120.358 -71.054,134.153 -0.573,1.711 -1.274,4.312 -1.69,5.552 h -40.858 c 0,0 42.192,-150.794 82.241,-222.16 40.048,-71.365 104.345,-168.877 104.345,-168.877 0,0 4.513,-8.009 -1.8,-12.13 4.214,-0.992 4.161,-0.671 4.161,-0.671 z"
           id="path7048"
           sodipodi:nodetypes="cscccssccsccc" /><path
           style="display:inline;fill:url(#linearGradient7076);fill-opacity:1;stroke:none;stroke-width:6.90587px;stroke-linecap:butt;stroke-linejoin:miter;stroke-opacity:1"
           d="m -28096.433,-10290.51 c 0,0 6.968,-0.736 15.207,26.812 2.706,37.123 -59.02,93.874 -84.481,120.305 0,0 -15.243,-24.415 -28.918,-31.575 -6.379,-3.339 -24.238,11.058 -28.881,10.942 2.717,-3.034 17.29,-17.381 21.566,-22.208 4.276,-4.826 106.004,-92.485 105.507,-104.276 z"
           id="path7050"
           sodipodi:nodetypes="cccscsc" /></g></g></g></svg>
